<svg version="1.2" xmlns="http://www.w3.org/2000/svg" viewBox="0 0 300 200" width="300" height="200">
	<title>Logo11 - .s1 { fill: #231f20 } </title>
	<style>
		.s0 { fill: #fcba2f } 
		.s1 { fill: currentColor } 
		.s2 { fill: #ee4035 } 
		.s3 { fill: #51b847 } 
	</style>
	<g id="Layer 1">
		<g id="&lt;Group&gt;">
			<g id="&lt;Group&gt;">
				<path id="&lt;Compound Path&gt;" fill-rule="evenodd" class="s0" d="m294.6 74.8c-3.1 0.8-6 0.5-8-2.2-1.6-2.1-1.4-5.6-4.5-6.2-1.4-0.3-1.8-0.3-1.4-1.8 0.4-1.3-0.4-2-1.2-2.8-1.9-2-2.1-6.4-3.3-8.9q-2.1-4.4-4.2-8.9 0.7-1 1.3-2c0.6-1.1 0.4-2.2 0.2-3.3-0.4-2.5-1.5-2.8-3.9-3.1-2.6-0.4-5.3-0.5-7.9-1-3-0.6-5.4-2.6-8.3-3.4-1.8-0.5-3.4 1.7-4.6 4.1-1.2-0.7-2.4-2.4-2.8-2.8-0.9-1.1-1.9-1.3-3.2-1.7-3.8-1.2-2.4-3.1-2.3-6.2 0.1-4.8-13.2-1.6-15.8-1q-0.1 0-0.2 0.1 0.1-0.1 0.2-0.1c-6.2-0.6-10.6 0.9-14.7 5.5-1.2 1.4-2.4 2.9-3.4 4.5q-0.3 0.5-0.6 1-0.3 0.1-0.6 0.4c-3.3 2.1-6.6 4.9-9.3 7.7-2.3 2.4-5 5.2-6.3 8.4-0.9 2.1-0.6 4.4-1.2 6.7-0.7 2.7-2.6 4.9-3.4 7.5-0.6 1.7-0.2 3.5 0.6 5.1h8.1q-0.2-0.5-0.5-1c-1.2-2.8-3.1-4.7-3.6-7.9-0.5-2.5 1.6-4.8 2.6-7 1.1-2.5 1.3-4.6 1.5-7.3q0.2-0.6 0.2-0.8 1-0.8 2-1.6c1.6-1.3 3.1-2.8 4.9-4 2.9-1.9 5.2-4.1 7.2-7 0.6-0.8 1.1-1.5 1.5-2.4q0.2-0.1 0.5-0.2c0.2-0.1 0.4-0.2 0.6-0.3 2.8-1.9 5.9-1.6 9.2-1.3q0.2 0 0.5-0.1c3.7-0.9 7.6-1.6 11.5-1.2 5.9 0.6 2.1 3.3 3.5 6.9 0.5 1.3 3.1 1.6 4.3 2 2.3 0.8 2.7 4.1 5.5 4.1 1.4 0.1 3.1-2.7 3.8-3.6q0.2-0.2 0.4-0.4c1.8 0.4 3.9 2 5.1 2.5 2.6 1.1 5.4 1.3 8.2 1.5 1.5 0.2 3.6 0.1 5 1-1.3 1.5-2.6 3.3-2.4 3.8 3 6.1 6.5 12.3 8.2 19 0.5 1.7 2.7 3.5 2.4 5.1-0.2 1.5-0.5 1.9 1.4 2.2 3.6 0.5 3.6 6.2 6.6 8.1 3.2 2.2 6.8-0.9 10-0.5 1.1 0.1-3.3 8.7-3.7 9.3-2 3.7-4.9 5.5-8.4 8.2-3 2.3-5.6 4.9-7.9 7.9-1.6 2-3.5 4.3-3.2 7 0.4 2.9 1.6 5.7 2.2 8.5 0.9 4.6 0.4 4.8-3.2 7-3.5 2.1-5.8 3.8-8.2 7.2-0.8 1.1-1.3 2-1.3 3.4 0 0.6 0.2 1 0.4 1.3-1.5 0.8-2.8 2.6-3.9 4.2q-1.5 1.5-1 1.7 0 0.1-0.1 0.1c-0.5 0.9-0.8 1.9-1.2 2.9-1 2.5-4 4.2-6.4 5.1-2.1 0.9-3.7 0.2-5.7 1.5-4.4 2.8-5-7.7-5.7-9.4-1.9-4.3-2.5-8-3-12.7-0.2-2-0.5-3.9-1.2-5.8q-0.2-0.4-0.4-0.8l-3.8 2.4-2.4 0.3c0.7 2.1 1.9 3.9 2.6 6.2 1.4 5.3 0.5 10.6 3.1 15.6 1.6 3.1 0.8 6.9 3.1 9.5 1.8 2.1 3.5-0.2 5.4-0.4 1.9-0.3 3.3-0.2 5.1-1.1 3.2-1.6 5.9-4.5 8.1-7.1 1.8-2.1 3.5-4.3 4.8-6.7 0.2-0.1 0.5-0.2 0.9-0.3 2.4-1 4.3-4.3 5.7-6.3 0.7-1 1.2-2 1.4-3.2 0.1-0.8-0.3-1.5-0.7-2.1 1.5-0.9 3.1-1.7 4.3-2.8 2.4-2 4.3-4.6 6-7.1 1.7-2.3 2.4-4.4 2.2-7.3-0.2-2.3-1-4.7-1.6-6.9q-0.4-1.4-0.8-2.9c-0.1-0.7 0.1-1.3 0.1-1.5 3.9-3.4 8.3-5.9 11.8-9.8 4-4.5 7.1-9.9 9.7-15.3 0.7-1.6 1.7-3.4 1.9-5.2 0.1-1.4-3.8 0.1-4.4 0.2zm-85-43.3c-0.3 0.4-0.5 0.2 0 0m79.6 90.4q-0.2 0.2-0.4 0.4-0.1 0.1-0.2 0.2c-3.9 4.3-12 6.7-13.6 13.1-0.6 2.3-0.5 4.3-1.8 6.5-0.8 1.3-1.1 2.5-0.7 4 0.8 2.6 3.5 2.9 5.3 1.3 2.7-2.5 5-5.7 6.6-9 0.9-1.8 1.6-3.8 2.4-5.7 1.8-1.3 4.1-4.7 4.4-6.3 0.5-2.2 1.3-8-2-4.5zm-2.3 8.4c-1 1.1-1.9 2.3-2.7 3.7-0.9 1.3-1.4 2.8-2 4.3q-0.9 2-1.8 4.1 1.8-0.5-0.1 0.1-0.6 0-1.1-0.2c-2.1-0.7-2.5-3.5-1.6-5.1 0.5-1.1 1.1-2.1 1.5-3.1q0.3-0.6 0.3-1.2 0.1-0.4 0.1-0.7c1.1-0.7 2.2-1.3 3.3-2.2 1.2-1.1 2.3-2.3 3.4-3.5 1 0.1 1 2.1 0.7 3.8z"/>
			</g>
			<g id="&lt;Group&gt;">
				<g id="&lt;Group&gt;">
					<path id="&lt;Compound Path&gt;" fill-rule="evenodd" class="s1" d="m10.8 93.9h30.8l-1.4 8.5h-19l-1.9 9.5h17.6l-1.9 9h-17.6l-3.3 16.6h-12.3z"/>
					<path id="&lt;Compound Path&gt;" fill-rule="evenodd" class="s1" d="m40.7 121.3q1-15.1 8.7-21.3 7.6-6.2 16.6-6.9 0.7-0.1 1.3-0.1 0.7 0 1.4 0 9.9 0 14.4 4.3 4.5 4.3 4.5 11.8 0 2.4-0.4 5.2-0.4 2.7-1.3 5.5-2.4 7.2-8.5 13.1-6.2 6-17.9 6-0.2 0-0.3 0-0.2 0-0.5 0-10.5-0.3-14-4.9-3.6-4.7-4-10.1 0-0.6 0-1.3 0-0.6 0-1.2zm13.8-6.6q-0.4 1.7-0.6 3.3-0.2 1.5-0.2 2.9 0 4.2 1.8 6.4 1.8 2.1 5.6 2.1 6.8 0 10.1-6 3.2-6 3.6-13.4 0-3.6-1.8-6-1.7-2.5-5.3-2.5-4.2 0-7.7 2.7-3.4 2.7-5.5 10.5z"/>
					<path id="&lt;Compound Path&gt;" fill-rule="evenodd" class="s1" d="m97.2 93.9h19q0 0 0.1 0 0 0 0 0 6.2 0 11.3 1.7 5.1 1.6 5.1 7.1 0 0.1 0 0.2 0 0.1 0 0.1 0 0.1 0 0.2 0 0.1 0 0.2-0.2 4.6-2.7 7.4-2.5 2.8-5.5 4.2-1.2 0.5-2.3 0.8-1.2 0.3-2.2 0.4 0 0 0.1 0 0.2 0.1 0.5 0.1 0.3 0 0.5 0.1 2.2 0.4 4.1 1.4 1.9 1.1 1.9 4.6 0 1.5-0.1 3-0.1 1.4-0.2 2.9-0.2 1.4-0.2 2.9-0.1 1.5-0.1 3 0 0.8 0 1.7 0 0.8 0.1 1.6h-13.3q-0.1-0.4-0.1-0.8 0-0.4 0-0.8 0-1 0.1-2.1 0.1-1 0.2-2 0.1-0.3 0.1-0.6 0-0.3 0.1-0.6 0.2-1.4 0.4-2.7 0.1-1.3 0.1-2.4 0-1.8-0.7-3-0.6-1.1-2.6-1.1 0 0-0.1 0-0.1 0-0.1 0-0.1 0-0.1 0-0.1 0-0.2 0l-6.1-0.1-3.3 16.2h-12.8zm15.1 18.5q2.6 0 4.4-1.4 1.8-1.5 2.4-3.2 0-0.3 0.1-0.6 0.1-0.4 0.1-0.7 0-1.4-1.1-2.4-1-1.1-3.5-1.2h-6.6l-2 9.5z"/>
					<path id="&lt;Compound Path&gt;" fill-rule="evenodd" class="s1" d="m136.1 120.4l5.6-26.5h12.4l-5.7 27q0 0.3-0.1 0.5 0 0.2 0 0.4-0.1 0.3-0.1 0.5 0 0.2 0 0.5 0 2.6 1.8 4.7 1.7 2 5 2 0.3 0 0.5 0 0.2 0 0.4 0 4 0 6.2-1.9 2.2-2 3.1-4.3 0.3-0.7 0.5-1.4 0.2-0.7 0.2-1.4l5.8-26.6h12.3l-5.2 25.1q-1.8 9.3-7.9 14.4-6 5-17.8 5-8.7 0-13-3.4-4.4-3.5-4.4-10.3 0-1 0.1-2 0.1-1.1 0.3-2.2z"/>
					<path id="&lt;Compound Path&gt;" fill-rule="evenodd" class="s1" d="m191.6 93.9h19l0.9 27.9 12.8-27.9h19l-9 43.6h-10.9l7.6-36.5-17.6 36.5h-10.9l-1.9-36.5-7.6 36.5h-10.9z"/>
				</g>
			</g>
			<g id="&lt;Group&gt;">
				<path id="&lt;Compound Path&gt;" fill-rule="evenodd" class="s2" d="m18.8 74.7h4.7l2.4 13.3h-4.2l-0.4-2.6h-5.3l-1.4 2.6h-3.8zm1.6 2.3l-2.9 5.7h3.5z"/>
				<path id="&lt;Compound Path&gt;" fill-rule="evenodd" class="s2" d="m30.1 74.7h9.5l-0.4 2.6h-5.9l-0.5 2.9h5.3l-0.5 2.7h-5.4l-1 5.1h-3.8z"/>
				<path id="&lt;Compound Path&gt;" fill-rule="evenodd" class="s2" d="m41.2 74.7h5.8q0 0 0 0 0 0 0.1 0 1.8 0 3.4 0.5 1.6 0.5 1.6 2.2 0 0 0 0 0 0 0 0.1 0 0 0 0 0 0 0 0.1-0.1 1.4-0.9 2.2-0.7 0.9-1.6 1.3-0.4 0.2-0.8 0.3-0.3 0.1-0.6 0.1 0 0 0 0 0.1 0 0.2 0 0 0 0.1 0.1 0.7 0.1 1.3 0.4 0.5 0.3 0.6 1.4-0.1 0.5-0.1 0.9 0 0.5 0 0.9-0.1 0.4-0.1 0.9 0 0.4 0 0.9 0 0.3 0 0.5 0 0.3 0 0.5h-4.1q0-0.1 0-0.2 0-0.1 0-0.3 0-0.3 0-0.6 0.1-0.3 0.1-0.6 0-0.1 0-0.2 0-0.1 0.1-0.2 0-0.4 0.1-0.8 0-0.4 0-0.8 0-0.5-0.2-0.9-0.2-0.3-0.8-0.3 0 0 0 0-0.1 0-0.1 0 0 0 0 0 0 0 0 0h-1.9l-1 4.9h-4zm4.7 5.7q0.7 0 1.3-0.4 0.6-0.5 0.7-1 0.1-0.1 0.1-0.2 0-0.1 0-0.2 0-0.4-0.3-0.7-0.3-0.4-1.1-0.4h-2l-0.6 2.9z"/>
				<path id="&lt;Compound Path&gt;" fill-rule="evenodd" class="s2" d="m54.8 74.7h3.8l-2.7 13.3h-4z"/>
				<path id="&lt;Compound Path&gt;" fill-rule="evenodd" class="s2" d="m58.8 83.2q0-0.7 0.1-1.6 0.1-0.9 0.4-1.8 0.6-2 2.4-3.8 1.7-1.7 5.4-1.8 0.4 0 0.9 0.1 0.4 0 0.9 0.1 1.4 0.2 2.6 0.9 1.2 0.7 1.2 2.3 0 0.2 0 0.5 0 0.2-0.1 0.5h-4.1q0-0.1 0-0.2 0.1-0.1 0.1-0.2 0-0.7-0.4-1-0.4-0.3-0.8-0.4-0.3-0.1-0.5-0.1-0.3 0-0.4 0-0.2 0-0.3 0-0.2 0.1-0.4 0.1-0.8 0.3-1.6 1.3-0.8 1-1.2 3 0 0.1-0.1 0.3 0 0.2 0 0.3-0.1 0.4-0.1 0.7 0 0.3 0 0.7 0 1 0.4 1.7 0.4 0.8 1.5 0.8 0.1 0 0.3 0 0.1 0 0.2 0 0.2 0 0.3-0.1 0.2 0 0.5-0.1 0.5-0.3 1-0.7 0.4-0.5 0.5-1.2h3.9q0 0.1 0 0.1 0.1 0.1 0.1 0.1 0 0.4-0.3 0.9-0.2 0.6-0.8 1.3-0.7 0.9-2.2 1.7-1.4 0.7-3.7 0.7-0.1 0-0.2 0-0.1 0-0.1 0-3.1 0-4.2-1.3-1.1-1.2-1.2-2.8 0-0.2 0-0.5 0-0.2 0-0.5z"/>
				<path id="&lt;Compound Path&gt;" fill-rule="evenodd" class="s2" d="m79.4 74.7h4.7l2.5 13.3h-4.3l-0.4-2.6h-5.2l-1.5 2.6h-3.8zm1.6 2.3l-2.9 5.7h3.5z"/>
				<path id="&lt;Compound Path&gt;" fill-rule="evenodd" class="s2" d="m90.5 74.7h5.4l2.3 9.5 2.2-9.5h3.4l-2.8 13.3h-5.3l-2.5-10.2-2 10.2h-3.5z"/>
				<path id="&lt;Compound Path&gt;" fill-rule="evenodd" class="s3" d="m114.6 77.3h-4.1l0.6-2.6h12.1l-0.4 2.6h-4.3l-2.3 10.7h-3.9z"/>
				<path id="&lt;Compound Path&gt;" fill-rule="evenodd" class="s3" d="m124.4 74.7h10.3l-0.6 2.6h-6.4l-0.6 2.6h6l-0.6 2.7h-6l-0.6 2.7h6.6l-0.6 2.7h-10.3z"/>
				<path id="&lt;Compound Path&gt;" fill-rule="evenodd" class="s3" d="m134.8 83.2q0-0.7 0.1-1.6 0.1-0.9 0.4-1.8 0.6-2 2.4-3.8 1.8-1.7 5.4-1.8 0.4 0 0.9 0.1 0.5 0 1 0.1 1.4 0.2 2.6 0.9 1.1 0.7 1.1 2.3 0 0.2 0 0.5 0 0.2-0.1 0.5h-4q0-0.1 0-0.2 0-0.1 0-0.2 0-0.7-0.4-1-0.4-0.3-0.8-0.4-0.3-0.1-0.5-0.1-0.2 0-0.4 0-0.1 0-0.3 0-0.2 0.1-0.3 0.1-0.9 0.3-1.7 1.3-0.7 1-1.2 3 0 0.1 0 0.3-0.1 0.2-0.1 0.3 0 0.4-0.1 0.7 0 0.3 0 0.7 0 1 0.4 1.7 0.4 0.8 1.6 0.8 0.1 0 0.2 0 0.1 0 0.2 0 0.2 0 0.4-0.1 0.2 0 0.4-0.1 0.5-0.3 1-0.7 0.5-0.5 0.5-1.2h4q0 0.1 0 0.1 0 0.1 0 0.1 0 0.4-0.3 0.9-0.2 0.6-0.7 1.3-0.8 0.9-2.3 1.7-1.4 0.7-3.7 0.7-0.1 0-0.1 0-0.1 0-0.2 0-3.1 0-4.2-1.3-1-1.2-1.2-2.8 0-0.2 0-0.5 0-0.2 0-0.5z"/>
				<path id="&lt;Compound Path&gt;" fill-rule="evenodd" class="s3" d="m151.7 74.7h3.5l-1.2 5h4.5l1-5h3.8l-2.7 13.3h-3.8l1.1-5.5h-4.5l-1.1 5.5h-3.8z"/>
				<path id="&lt;Compound Path&gt;" fill-rule="evenodd" class="s3" d="m165.5 74.7h5.4l2.3 9.5 2.2-9.5h3.5l-2.9 13.3h-5.3l-2.4-10.2-2.1 10.2h-3.5z"/>
				<path id="&lt;Compound Path&gt;" fill-rule="evenodd" class="s3" d="m179 83.1q0.3-4.7 2.7-6.6 2.3-1.9 5.1-2.1 0.2 0 0.4 0 0.2 0 0.4 0 3 0 4.4 1.3 1.4 1.3 1.4 3.6 0 0.8-0.1 1.6-0.1 0.8-0.4 1.7-0.7 2.2-2.6 4-1.9 1.8-5.5 1.9-0.1 0-0.1 0-0.1 0-0.1 0-3.3-0.1-4.4-1.5-1-1.5-1.2-3.2 0-0.1 0-0.3 0-0.2 0-0.4zm4.2-2q-0.1 0.5-0.1 1-0.1 0.4-0.1 0.9 0 1.3 0.6 1.9 0.5 0.7 1.7 0.7 2.1 0 3.1-1.9 1-1.8 1.1-4.1 0-1.1-0.6-1.8-0.5-0.8-1.6-0.8-1.3 0-2.3 0.8-1.1 0.9-1.8 3.3z"/>
				<path id="&lt;Compound Path&gt;" fill-rule="evenodd" class="s3" d="m196.3 74.7h3.9l-2.3 10.4h6.1l-0.5 2.9h-9.9z"/>
				<path id="&lt;Compound Path&gt;" fill-rule="evenodd" class="s3" d="m205.8 83.1q0.3-4.7 2.6-6.6 2.4-1.9 5.1-2.1 0.2 0 0.4 0 0.2 0 0.5 0 3 0 4.4 1.3 1.4 1.3 1.4 3.6 0 0.8-0.2 1.6-0.1 0.8-0.4 1.7-0.7 2.2-2.6 4-1.9 1.8-5.5 1.9 0 0-0.1 0 0 0-0.1 0-3.2-0.1-4.3-1.5-1.1-1.5-1.2-3.2 0-0.1 0-0.3 0-0.2 0-0.4zm4.2-2q-0.1 0.5-0.2 1 0 0.4 0 0.9 0 1.3 0.5 1.9 0.6 0.7 1.7 0.7 2.1 0 3.1-1.9 1-1.8 1.1-4.1 0-1.1-0.5-1.8-0.6-0.8-1.6-0.8-1.3 0-2.4 0.8-1.1 0.9-1.7 3.3z"/>
				<path id="&lt;Compound Path&gt;" fill-rule="evenodd" class="s3" d="m221 82.9q0.1-3.9 2.6-6.2 2.5-2.3 6.5-2.3 0.4 0 0.9 0 0.4 0 0.9 0.1 1.3 0.1 2.3 0.7 1.1 0.7 1.1 2.3 0 0.2-0.1 0.5 0 0.3-0.1 0.6h-3.6q-0.1-0.8-0.5-1.2-0.5-0.4-1.7-0.4-1.6 0-2.9 1.5-1.2 1.6-1.4 3.4-0.1 0.1-0.1 0.2 0 0.1 0 0.2 0 0.3 0.1 0.6 0 0.2 0.1 0.5 0.2 0.9 0.9 1.6 0.6 0.7 1.9 0.7 0.3 0 0.8 0 0.6-0.1 1.4-0.4l0.4-2.2h-2.6l0.6-2.8h6.4l-1.5 7.3q-2 0.3-3.6 0.5-1.6 0.2-2.8 0.2-0.1 0-0.1 0-0.1 0-0.1 0 0 0-0.1 0 0 0-0.1 0-3 0-4.3-1.5-1.3-1.5-1.3-3.9z"/>
				<path id="&lt;Compound Path&gt;" fill-rule="evenodd" class="s3" d="m241 83.2l-3.4-8.5h4.4l1.6 5.5 4.2-5.5h3.9l-7 8.4-1 4.9h-3.8z"/>
			</g>
			<path id="&lt;Path&gt;" fill-rule="evenodd" class="s0" d="m235.4 142.4c-16.9 8.6-112.2 52.3-234.4 2.9 0 0 107.1 65.4 232.7 11z"/>
		</g>
	</g>
</svg>