<?xml version="1.0" encoding="utf-8"?>
<!-- Generator: Adobe Illustrator 27.0.1, SVG Export Plug-In . SVG Version: 6.00 Build 0)  -->
<svg version="1.1" id="cmyk_coated_logo" xmlns="http://www.w3.org/2000/svg" xmlns:xlink="http://www.w3.org/1999/xlink" x="0px"
	 y="0px" viewBox="0 0 137 50.7" style="enable-background:new 0 0 137 50.7;" xml:space="preserve">
<style type="text/css">
	.st0{fill:#6B6B6B;}
	.st1{fill:#0081C6;}
	.st2{fill:#F04931;}
	.st3{fill:#FBAB18;}
	.st4{fill:#33A852;}
</style>
<g>
	<g>
		<g>
			<path class="st0" d="M96.5,42c0,0.5-0.2,1-0.5,1.3c-0.4,0.4-0.8,0.6-1.3,0.6c-0.5,0-1-0.2-1.3-0.6c-0.4-0.4-0.6-0.8-0.6-1.3
				c0-0.5,0.2-1,0.6-1.3c0.4-0.4,0.8-0.5,1.3-0.5c0.5,0,1,0.2,1.3,0.5C96.3,41,96.5,41.5,96.5,42z"/>
			<path class="st0" d="M98.1,37c0-2.1,0.7-3.8,2-5.2c1.3-1.4,3-2,5-2c2,0,3.7,0.7,5,2c1.3,1.4,2,3.1,2,5.2c0,2.1-0.7,3.8-2,5.2
				c-1.3,1.4-3,2-5,2c-2,0-3.7-0.7-5-2C98.8,40.8,98.1,39.1,98.1,37z M100.7,37c0,1.5,0.4,2.6,1.3,3.5c0.8,0.9,1.9,1.4,3.2,1.4
				c1.3,0,2.3-0.5,3.2-1.4c0.8-0.9,1.3-2.1,1.3-3.5c0-1.4-0.4-2.6-1.3-3.5c-0.9-0.9-1.9-1.4-3.2-1.4s-2.3,0.5-3.2,1.4
				C101.1,34.4,100.7,35.5,100.7,37z"/>
			<path class="st0" d="M116.8,43.7h-2.5V30.2h2.4v2.2h0.1c0.3-0.7,0.8-1.3,1.6-1.8c0.8-0.5,1.6-0.8,2.4-0.8c0.7,0,1.4,0.1,1.9,0.3
				l-0.8,2.5c-0.3-0.1-0.8-0.2-1.5-0.2c-1,0-1.8,0.4-2.5,1.2c-0.7,0.8-1.1,1.7-1.1,2.7V43.7z"/>
			<path class="st0" d="M129.7,50.2c-0.8,0-1.5-0.1-2.1-0.3c-0.7-0.2-1.3-0.5-1.8-0.8c-0.5-0.4-1-0.8-1.4-1.2
				c-0.4-0.5-0.7-1-0.9-1.6l2.4-1c0.3,0.8,0.8,1.4,1.4,1.9c0.7,0.5,1.5,0.7,2.4,0.7c1.4,0,2.5-0.4,3.2-1.2c0.8-0.8,1.2-2,1.2-3.4
				v-1.3H134c-0.5,0.7-1.1,1.3-2,1.7c-0.8,0.4-1.7,0.6-2.7,0.6c-1.8,0-3.3-0.7-4.6-2.1c-1.3-1.4-1.9-3.1-1.9-5.1s0.6-3.7,1.9-5.1
				c1.3-1.4,2.8-2.1,4.6-2.1c1,0,1.9,0.2,2.7,0.6c0.8,0.4,1.5,1,2,1.7h0.1v-1.9h2.4v13c0,2.2-0.6,3.9-1.9,5.1
				C133.4,49.5,131.7,50.2,129.7,50.2z M129.7,41.9c1.3,0,2.3-0.5,3.1-1.4c0.8-0.9,1.2-2.1,1.2-3.5c0-1.4-0.4-2.6-1.2-3.5
				c-0.8-0.9-1.8-1.4-3.1-1.4c-1.2,0-2.2,0.5-3.1,1.4c-0.8,0.9-1.2,2.1-1.2,3.5c0,1.4,0.4,2.6,1.2,3.5
				C127.5,41.4,128.5,41.9,129.7,41.9z"/>
		</g>
		<g>
			<path class="st1" d="M11.9,44.2c-6.2,0-11.4-5-11.4-11.2c0-6.2,5.2-11.2,11.4-11.2c3.4,0,5.9,1.3,7.7,3.1L17.4,27
				c-1.3-1.2-3.1-2.2-5.5-2.2c-4.5,0-8,3.6-8,8.2c0,4.5,3.5,8.2,8,8.2c2.9,0,4.6-1.2,5.7-2.2c0.9-0.9,1.5-2.1,1.7-3.9h-7.3V32h10.3
				c0.1,0.5,0.2,1.2,0.2,1.9c0,2.3-0.6,5.1-2.7,7.2C17.7,43.1,15.2,44.2,11.9,44.2z"/>
			<path class="st2" d="M38.3,37c0,4.2-3.2,7.2-7.1,7.2s-7.1-3.1-7.1-7.2c0-4.2,3.2-7.2,7.1-7.2S38.3,32.8,38.3,37z M35.2,37
				c0-2.6-1.9-4.4-4-4.4s-4,1.8-4,4.4c0,2.6,1.9,4.4,4,4.4S35.2,39.5,35.2,37z"/>
			<path class="st3" d="M54.3,37c0,4.2-3.2,7.2-7.1,7.2c-3.9,0-7.1-3.1-7.1-7.2c0-4.2,3.2-7.2,7.1-7.2C51.1,29.7,54.3,32.8,54.3,37z
				 M51.2,37c0-2.6-1.9-4.4-4-4.4c-2.1,0-4,1.8-4,4.4c0,2.6,1.9,4.4,4,4.4C49.3,41.3,51.2,39.5,51.2,37z"/>
			<path class="st1" d="M69.8,30.2v13c0,5.3-3.1,7.5-6.9,7.5c-3.5,0-5.6-2.4-6.4-4.3l2.8-1.1c0.5,1.2,1.7,2.6,3.6,2.6
				c2.4,0,3.9-1.5,3.9-4.2v-1h-0.1c-0.7,0.9-2.1,1.6-3.8,1.6C59.3,44.2,56,41,56,37c0-4.1,3.3-7.3,6.9-7.3c1.7,0,3.1,0.8,3.8,1.6
				h0.1v-1.2H69.8z M67.1,37c0-2.5-1.7-4.4-3.9-4.4c-2.2,0-4,1.9-4,4.4c0,2.5,1.8,4.4,4,4.4C65.4,41.3,67.1,39.5,67.1,37z"/>
			<path class="st4" d="M75.4,22.5v21.2h-3.2V22.5H75.4z"/>
			<path class="st2" d="M87.9,39.3l2.5,1.6c-0.8,1.2-2.7,3.2-6,3.2c-4.1,0-7.1-3.2-7.1-7.2c0-4.3,3-7.2,6.7-7.2c3.7,0,5.6,3,6.2,4.6
				l0.3,0.8l-9.7,4c0.7,1.5,1.9,2.2,3.5,2.2C85.9,41.3,87.1,40.5,87.9,39.3z M80.3,36.7l6.5-2.7c-0.4-0.9-1.4-1.5-2.7-1.5
				C82.5,32.5,80.2,34,80.3,36.7z"/>
		</g>
	</g>
	<g>
		<path class="st0" d="M0.6,4.1H2l2,6.5h0l2.1-6.5h1.4l2.1,6.5h0l2-6.5H13l-2.7,8.3H8.9L6.8,5.8l-2.1,6.6H3.3L0.6,4.1z"/>
		<path class="st0" d="M14.2,2.3c-0.2-0.2-0.3-0.4-0.3-0.7c0-0.3,0.1-0.5,0.3-0.7c0.2-0.2,0.4-0.3,0.7-0.3c0.3,0,0.5,0.1,0.7,0.3
			c0.2,0.2,0.3,0.4,0.3,0.7c0,0.3-0.1,0.5-0.3,0.7c-0.2,0.2-0.4,0.3-0.7,0.3C14.7,2.6,14.4,2.5,14.2,2.3z M14.2,4.1h1.4v8.3h-1.4
			V4.1z"/>
		<path class="st0" d="M19.9,12.5c-0.3-0.1-0.5-0.3-0.7-0.4c-0.2-0.2-0.4-0.5-0.5-0.7c-0.1-0.3-0.2-0.6-0.2-1V5.3h-1.4V4.1h1.4V1.8
			H20v2.3h2v1.2h-2v4.6c0,0.5,0.1,0.8,0.3,1c0.2,0.2,0.5,0.4,0.9,0.4c0.3,0,0.6-0.1,0.9-0.3v1.3c-0.2,0.1-0.3,0.1-0.5,0.2
			c-0.2,0-0.4,0-0.6,0C20.5,12.6,20.2,12.6,19.9,12.5z"/>
		<path class="st0" d="M23.7,0.8h1.4v3.4L25,5.3h0.1c0.2-0.4,0.6-0.8,1.1-1.1c0.5-0.3,1-0.4,1.6-0.4c1,0,1.8,0.3,2.3,0.9
			c0.5,0.6,0.8,1.4,0.8,2.3v5.3h-1.4V7.3c0-0.7-0.2-1.3-0.6-1.7c-0.4-0.4-0.9-0.5-1.5-0.5c-0.4,0-0.8,0.1-1.2,0.4
			c-0.4,0.3-0.6,0.6-0.9,1s-0.3,0.8-0.3,1.3v4.6h-1.4V0.8z"/>
		<path class="st0" d="M37.3,12c-0.6-0.4-1-0.9-1.3-1.6l1.2-0.6c0.2,0.5,0.5,0.9,0.9,1.2c0.4,0.3,0.9,0.4,1.3,0.4
			c0.5,0,1-0.1,1.3-0.3c0.4-0.2,0.6-0.5,0.6-0.9c0-0.3-0.1-0.6-0.4-0.8c-0.3-0.2-0.8-0.4-1.4-0.5l-1-0.3c-0.7-0.2-1.2-0.4-1.6-0.8
			s-0.6-0.9-0.6-1.5c0-0.5,0.1-0.9,0.4-1.3c0.3-0.4,0.7-0.6,1.1-0.8c0.5-0.2,1-0.3,1.5-0.3c0.7,0,1.4,0.2,1.9,0.5
			c0.6,0.3,1,0.8,1.2,1.3l-1.2,0.6c-0.4-0.7-1-1.1-2-1.1c-0.5,0-0.9,0.1-1.2,0.3c-0.3,0.2-0.5,0.5-0.5,0.8c0,0.3,0.1,0.5,0.4,0.7
			c0.2,0.2,0.6,0.3,1.1,0.5l1.2,0.3c0.8,0.2,1.4,0.5,1.8,0.9c0.4,0.4,0.6,0.9,0.6,1.5c0,0.5-0.1,1-0.4,1.3c-0.3,0.4-0.7,0.7-1.2,0.9
			c-0.5,0.2-1,0.3-1.7,0.3C38.6,12.6,37.9,12.4,37.3,12z"/>
		<path class="st0" d="M45,11.7c-0.5-0.6-0.8-1.4-0.8-2.4V4.1h1.4v5c0,0.8,0.2,1.4,0.5,1.7c0.4,0.4,0.8,0.6,1.4,0.6
			c0.5,0,0.9-0.1,1.2-0.4c0.4-0.2,0.6-0.6,0.8-1C49.9,9.6,50,9.2,50,8.8V4.1h1.4v8.3H50v-1.2H50c-0.2,0.4-0.6,0.8-1.1,1
			c-0.5,0.3-1,0.4-1.6,0.4C46.3,12.6,45.5,12.3,45,11.7z"/>
		<path class="st0" d="M53.3,4.1h1.3v1.2h0.1c0.2-0.4,0.6-0.8,1.1-1.1s1.1-0.4,1.7-0.4c0.7,0,1.4,0.2,2,0.6c0.6,0.4,1.1,0.9,1.4,1.6
			c0.3,0.7,0.5,1.4,0.5,2.3c0,0.8-0.2,1.6-0.5,2.3c-0.3,0.7-0.8,1.2-1.4,1.6c-0.6,0.4-1.3,0.6-2,0.6c-0.6,0-1.2-0.1-1.7-0.4
			c-0.5-0.3-0.9-0.6-1.1-1h-0.1l0.1,1.1v3.6h-1.4V4.1z M58.7,11c0.4-0.3,0.8-0.6,1-1.1s0.4-1,0.4-1.6c0-0.6-0.1-1.2-0.4-1.6
			s-0.6-0.9-1-1.1c-0.4-0.3-0.9-0.4-1.3-0.4c-0.5,0-0.9,0.1-1.3,0.4c-0.4,0.3-0.8,0.6-1,1.1s-0.4,1-0.4,1.7s0.1,1.2,0.4,1.7
			c0.2,0.5,0.6,0.8,1,1.1c0.4,0.3,0.9,0.4,1.3,0.4C57.8,11.4,58.3,11.2,58.7,11z"/>
		<path class="st0" d="M62.8,4.1h1.3v1.2h0.1c0.2-0.4,0.6-0.8,1.1-1.1C65.9,4,66.4,3.8,67,3.8c0.7,0,1.4,0.2,2,0.6
			c0.6,0.4,1.1,0.9,1.4,1.6C70.8,6.6,71,7.4,71,8.2c0,0.8-0.2,1.6-0.5,2.3c-0.3,0.7-0.8,1.2-1.4,1.6c-0.6,0.4-1.3,0.6-2,0.6
			c-0.6,0-1.2-0.1-1.7-0.4c-0.5-0.3-0.9-0.6-1.1-1h-0.1l0.1,1.1v3.6h-1.4V4.1z M68.2,11c0.4-0.3,0.8-0.6,1-1.1s0.4-1,0.4-1.6
			c0-0.6-0.1-1.2-0.4-1.6s-0.6-0.9-1-1.1c-0.4-0.3-0.9-0.4-1.3-0.4c-0.5,0-0.9,0.1-1.3,0.4c-0.4,0.3-0.8,0.6-1,1.1
			c-0.2,0.5-0.4,1-0.4,1.7s0.1,1.2,0.4,1.7c0.2,0.5,0.6,0.8,1,1.1c0.4,0.3,0.9,0.4,1.3,0.4C67.4,11.4,67.8,11.2,68.2,11z"/>
		<path class="st0" d="M74.2,12c-0.6-0.4-1.2-0.9-1.5-1.6c-0.4-0.7-0.5-1.4-0.5-2.2s0.2-1.6,0.5-2.2c0.4-0.7,0.9-1.2,1.5-1.6
			c0.6-0.4,1.4-0.6,2.2-0.6c0.8,0,1.5,0.2,2.2,0.6c0.6,0.4,1.2,0.9,1.5,1.6s0.5,1.4,0.5,2.2s-0.2,1.6-0.5,2.2
			c-0.4,0.7-0.9,1.2-1.5,1.6c-0.6,0.4-1.4,0.6-2.2,0.6C75.6,12.6,74.9,12.4,74.2,12z M77.8,11c0.4-0.3,0.8-0.6,1.1-1.1
			c0.3-0.5,0.4-1,0.4-1.7S79.2,7,78.9,6.6c-0.3-0.5-0.6-0.8-1.1-1.1c-0.4-0.3-0.9-0.4-1.4-0.4s-1,0.1-1.4,0.4
			c-0.4,0.3-0.8,0.6-1.1,1.1c-0.3,0.5-0.4,1-0.4,1.7s0.1,1.2,0.4,1.7c0.3,0.5,0.6,0.8,1.1,1.1s0.9,0.4,1.4,0.4S77.4,11.2,77.8,11z"
			/>
		<path class="st0" d="M82.1,4.2h1.3v1.3h0.1c0.2-0.5,0.5-0.9,1-1.1C84.9,4.1,85.4,4,86,4c0.2,0,0.4,0,0.6,0v1.4
			c-0.2,0-0.4-0.1-0.7-0.1c-0.7,0-1.3,0.2-1.7,0.7c-0.4,0.5-0.7,1.1-0.7,1.8v4.6h-1.4V4.2z M90.5,12.5c-0.3-0.1-0.5-0.3-0.7-0.4
			c-0.2-0.2-0.4-0.5-0.5-0.7c-0.1-0.3-0.2-0.6-0.2-1V5.3h-1.4V4.1h1.4V1.8h1.4v2.3h2v1.2h-2v4.6c0,0.5,0.1,0.8,0.3,1
			c0.2,0.2,0.5,0.4,0.9,0.4c0.3,0,0.6-0.1,0.9-0.3v1.3c-0.2,0.1-0.3,0.1-0.5,0.2c-0.2,0-0.4,0-0.6,0C91.1,12.6,90.8,12.6,90.5,12.5z
			"/>
		<path class="st0" d="M97.9,5.3h-1.5V4.1h1.5V3.2c0-0.5,0.1-1,0.4-1.4c0.2-0.4,0.6-0.7,1-0.9c0.4-0.2,0.8-0.3,1.3-0.3
			c0.5,0,0.9,0.1,1.2,0.2v1.3c-0.2-0.1-0.4-0.1-0.6-0.2c-0.2,0-0.4-0.1-0.6-0.1c-0.4,0-0.7,0.1-0.9,0.4c-0.3,0.3-0.4,0.6-0.4,1.1
			v0.7h2.1v1.2h-2.1v7h-1.4V5.3z"/>
		<path class="st0" d="M103.1,4.1h1.3v1.3h0.1c0.2-0.5,0.5-0.8,0.9-1.1c0.5-0.3,1-0.5,1.5-0.5c0.4,0,0.7,0.1,1,0.2v1.5
			c-0.3-0.2-0.7-0.3-1.2-0.3c-0.4,0-0.8,0.1-1.1,0.3c-0.3,0.2-0.6,0.5-0.8,0.9c-0.2,0.4-0.3,0.8-0.3,1.2v4.6h-1.4V4.1z"/>
		<path class="st0" d="M110.3,12c-0.6-0.4-1.2-0.9-1.5-1.6c-0.4-0.7-0.5-1.4-0.5-2.2s0.2-1.6,0.5-2.2s0.9-1.2,1.5-1.6
			c0.6-0.4,1.4-0.6,2.2-0.6c0.8,0,1.5,0.2,2.2,0.6c0.6,0.4,1.2,0.9,1.5,1.6s0.5,1.4,0.5,2.2s-0.2,1.6-0.5,2.2
			c-0.4,0.7-0.9,1.2-1.5,1.6c-0.6,0.4-1.4,0.6-2.2,0.6C111.7,12.6,111,12.4,110.3,12z M113.9,11c0.4-0.3,0.8-0.6,1.1-1.1
			c0.3-0.5,0.4-1,0.4-1.7S115.3,7,115,6.6c-0.3-0.5-0.6-0.8-1.1-1.1c-0.4-0.3-0.9-0.4-1.4-0.4c-0.5,0-1,0.1-1.4,0.4
			c-0.4,0.3-0.8,0.6-1.1,1.1c-0.3,0.5-0.4,1-0.4,1.7s0.1,1.2,0.4,1.7c0.3,0.5,0.6,0.8,1.1,1.1s0.9,0.4,1.4,0.4
			C113,11.4,113.5,11.2,113.9,11z"/>
		<path class="st0" d="M118.2,4.1h1.3v1.2h0.1c0.2-0.4,0.6-0.8,1.1-1.1c0.5-0.3,1-0.4,1.5-0.4c0.6,0,1.1,0.1,1.6,0.4
			c0.4,0.3,0.8,0.7,1,1.2c0.3-0.5,0.7-0.9,1.2-1.2c0.5-0.3,1-0.4,1.7-0.4c1,0,1.7,0.3,2.1,0.9c0.5,0.6,0.7,1.4,0.7,2.4v5.3h-1.4V7.3
			c0-0.8-0.2-1.3-0.5-1.7c-0.3-0.3-0.8-0.5-1.4-0.5c-0.4,0-0.8,0.1-1.1,0.4c-0.3,0.2-0.6,0.6-0.8,1c-0.2,0.4-0.3,0.8-0.3,1.3v4.7
			h-1.4V7.3c0-0.8-0.2-1.3-0.5-1.7s-0.8-0.5-1.4-0.5c-0.4,0-0.8,0.1-1.1,0.4c-0.3,0.2-0.6,0.6-0.8,1c-0.2,0.4-0.3,0.8-0.3,1.3v4.6
			h-1.4V4.1z"/>
	</g>
</g>
</svg>
